<svg fill="none" height="260" viewBox="0 0 400 260" width="400" xmlns="http://www.w3.org/2000/svg">
  <rect fill="#0f172a" height="260" rx="24" width="400"/>
  <rect fill="#111c33" height="188" rx="16" stroke="#1f2937" stroke-width="2" width="352" x="24" y="36"/>
  <rect fill="#34d399" fill-opacity="0.9" height="24" rx="6" width="96" x="48" y="64"/>
  <rect fill="#1f2937" height="12" rx="6" width="304" x="48" y="108"/>
  <rect fill="#1f2937" height="12" rx="6" width="264" x="48" y="132"/>
  <rect fill="#0f766e" fill-opacity="0.6" height="52" rx="10" width="144" x="48" y="168"/>
  <rect fill="#1e3a8a" fill-opacity="0.6" height="52" rx="10" width="144" x="208" y="168"/>
  <circle cx="72" cy="200" fill="#34d399" r="14"/>
  <circle cx="232" cy="200" fill="#60a5fa" r="14"/>
  <rect fill="#22c55e" height="12" rx="6" width="72" x="104" y="184"/>
  <rect fill="#38bdf8" height="12" rx="6" width="72" x="264" y="184"/>
  <rect fill="#cbd5f5" fill-opacity="0.55" height="8" rx="4" width="84" x="104" y="204"/>
  <rect fill="#cbd5f5" fill-opacity="0.55" height="8" rx="4" width="84" x="264" y="204"/>
</svg>
