<svg width="400" height="260" viewBox="0 0 400 260" fill="none" xmlns="http://www.w3.org/2000/svg">
  <rect width="400" height="260" rx="24" fill="#0f172a"/>
  <rect x="24" y="36" width="352" height="188" rx="16" fill="#111c33" stroke="#1f2937" stroke-width="2"/>
  <rect x="48" y="64" width="96" height="24" rx="6" fill="#34d399" fill-opacity="0.9"/>
  <rect x="48" y="108" width="304" height="12" rx="6" fill="#1f2937"/>
  <rect x="48" y="132" width="264" height="12" rx="6" fill="#1f2937"/>
  <rect x="48" y="168" width="144" height="52" rx="10" fill="#0f766e" fill-opacity="0.6"/>
  <rect x="208" y="168" width="144" height="52" rx="10" fill="#1e3a8a" fill-opacity="0.6"/>
  <circle cx="72" cy="200" r="14" fill="#34d399"/>
  <circle cx="232" cy="200" r="14" fill="#60a5fa"/>
  <rect x="104" y="184" width="72" height="12" rx="6" fill="#22c55e"/>
  <rect x="264" y="184" width="72" height="12" rx="6" fill="#38bdf8"/>
  <rect x="104" y="204" width="84" height="8" rx="4" fill="#cbd5f5" fill-opacity="0.55"/>
  <rect x="264" y="204" width="84" height="8" rx="4" fill="#cbd5f5" fill-opacity="0.55"/>
</svg>
